<mxfile host="app.diagrams.net" modified="2024-03-31T18:32:29.491Z" agent="Mozilla/5.0 (Macintosh; Intel Mac OS X 10_15_7) AppleWebKit/537.36 (KHTML, like Gecko) Chrome/123.0.0.0 Safari/537.36" version="24.1.0" etag="OxePGAW8MbaQkYUjuz1J" type="github">
  <diagram name="Page-1" id="Fum8OvXL2X7Vyt9k7GmV">
    <mxGraphModel>
      <root>
        <mxCell id="0" />
        <mxCell id="1" parent="0" />
      </root>
    </mxGraphModel>
  </diagram>
</mxfile>
